<?xml version="1.0" encoding="UTF-8"?>
<!DOCTYPE svg PUBLIC "-//W3C//DTD SVG 1.1//EN" "http://www.w3.org/Graphics/SVG/1.1/DTD/svg11.dtd">
<!-- Creator: CorelDRAW X5 -->
<svg xmlns="http://www.w3.org/2000/svg" xml:space="preserve" width="16.9332mm" height="16.9332mm" style="shape-rendering:geometricPrecision; text-rendering:geometricPrecision; image-rendering:optimizeQuality; fill-rule:evenodd; clip-rule:evenodd"
viewBox="0 0 1693 1693"
 xmlns:xlink="http://www.w3.org/1999/xlink">
 <defs>
  <style type="text/css">
   <![CDATA[
    .fil0 {fill:#2a6299}
   ]]>
  </style>
 </defs>
 <g id="Warstwa_x0020_1">
  <metadata id="CorelCorpID_0Corel-Layer"/>
  <g id="_237834600">
   <path fill="#be2020" d="M39 1118c26,3 1130,1 1198,1 67,0 134,0 201,0 34,0 177,4 199,-2 4,-67 0,-145 0,-213 0,-178 2,-363 0,-540 0,-15 -2,-31 -7,-44 -2,-7 -5,-14 -8,-19 -2,-3 -3,-5 -5,-8 -6,-8 -1,-4 -8,-8 -14,10 -208,207 -226,225l-253 253c-13,13 -12,19 -38,19 -261,-2 -532,4 -790,-1l-1 -100 569 0c4,-15 2,-72 2,-91 0,-53 -5,-40 23,-69 32,-32 62,-62 94,-94 22,-22 182,-179 187,-189 -166,-5 -339,0 -506,0 -168,0 -337,-2 -505,0 -75,1 -125,47 -129,122 -4,81 0,172 0,254 0,44 -2,474 1,505zm608 -268l725 0 0 100 -725 0 0 -100zm-344 -237l430 1 1 -100 -430 -1 0 100zm0 336l242 1 0 -100 -242 -1 0 100z"/>
   <path class="fil0" d="M976 681l59 1c42,0 28,7 75,-40l292 -292c20,-20 38,-38 58,-58 12,-12 52,-49 59,-61 -5,-9 -83,-87 -93,-93 -10,6 -109,107 -126,124 -42,42 -82,82 -124,124l-187 187c-19,19 -15,12 -15,47 0,16 -2,47 1,62z"/>
   <path class="fil0" d="M1499 64c5,9 85,89 94,93 11,-7 46,-43 53,-56 35,-58 -32,-127 -91,-92 -12,7 -48,43 -56,54z"/>
   <path fill="#be2020" d="M573 1476l-16 116 -87 1 -1 100 738 1 0 -99 -86 -1 -17 -117c132,-1 264,0 396,0 64,0 103,-21 126,-68 13,-26 12,-54 12,-87 0,-29 3,-73 -1,-100l-1597 0c-4,44 -4,151 10,184 24,56 72,71 127,72 66,0 132,0 198,0 64,0 135,-3 198,0zm201 -179l128 0 0 100 -128 0 0 -100z"/>
  </g>
 </g>
</svg>
