<?xml version="1.0" encoding="UTF-8"?>
<!DOCTYPE svg PUBLIC "-//W3C//DTD SVG 1.1//EN" "http://www.w3.org/Graphics/SVG/1.1/DTD/svg11.dtd">
<!-- Creator: CorelDRAW X5 -->
<svg xmlns="http://www.w3.org/2000/svg" xml:space="preserve" width="16.9332mm" height="16.9332mm" style="shape-rendering:geometricPrecision; text-rendering:geometricPrecision; image-rendering:optimizeQuality; fill-rule:evenodd; clip-rule:evenodd"
viewBox="0 0 1693 1693"
 xmlns:xlink="http://www.w3.org/1999/xlink">
 <defs>
  <style type="text/css">
   <![CDATA[
    .fil0 {fill:#2a6299}
   ]]>
  </style>
 </defs>
 <g id="Warstwa_x0020_1">
  <metadata id="CorelCorpID_0Corel-Layer"/>
  <g id="_80882744">
   <path fill="#be2020" d="M1665 771l-257 -255 0 -295c0,-53 -43,-97 -97,-97 -54,0 -97,43 -97,97l0 102 -191 -190c-94,-94 -259,-94 -353,0l-642 638c-38,38 -38,99 0,137 38,38 99,38 137,0l642 -638c21,-21 58,-21 79,0l642 638c19,19 44,28 69,28 25,0 50,-9 69,-28 38,-38 38,-99 0,-137z"/>
   <path class="fil0" d="M880 453c-19,-19 -49,-19 -67,0l-564 561c-9,9 -14,21 -14,34l0 409c0,96 78,174 175,174l279 0 0 -430 316 0 0 430 279 0c97,0 175,-78 175,-174l0 -409c0,-13 -5,-25 -14,-34l-564 -561z"/>
  </g>
 </g>
</svg>
