<?xml version="1.0" encoding="UTF-8"?>
<!DOCTYPE svg PUBLIC "-//W3C//DTD SVG 1.1//EN" "http://www.w3.org/Graphics/SVG/1.1/DTD/svg11.dtd">
<!-- Creator: CorelDRAW X5 -->
<svg xmlns="http://www.w3.org/2000/svg" xml:space="preserve" width="16.9332mm" height="16.9332mm" style="shape-rendering:geometricPrecision; text-rendering:geometricPrecision; image-rendering:optimizeQuality; fill-rule:evenodd; clip-rule:evenodd"
viewBox="0 0 1693 1693"
 xmlns:xlink="http://www.w3.org/1999/xlink">
 <defs>
  <style type="text/css">
   <![CDATA[
    .fil0 {fill:#2a6299}
   ]]>
  </style>
 </defs>
 <g id="Warstwa_x0020_1">
  <metadata id="CorelCorpID_0Corel-Layer"/>
  <g id="_236555496">
   <path class="fil0" d="M1630 1144c-32,-2 -99,35 -117,45 -65,34 -156,88 -215,130 -4,3 -10,7 -14,9 -27,18 -55,30 -87,37 -173,38 -426,42 -426,42l-15 1c-11,1 -21,-7 -23,-18 -2,-12 7,-24 19,-25l375 -37c41,-5 74,-45 70,-90 -5,-45 -44,-78 -86,-73l-334 -4c-23,0 -59,-6 -81,-13 -215,-65 -336,-4 -401,24 -14,-25 -42,-41 -72,-39l-144 10c-48,3 -84,45 -81,93l23 331c3,48 45,84 93,81l144 -10c30,-2 55,-22 66,-48l632 28c71,8 137,-1 198,-35l18 -10 478 -290c24,-14 40,-39 41,-66 1,-33 -18,-70 -63,-74zm-1462 426c-27,0 -49,-22 -49,-49 0,-27 22,-49 49,-49 27,0 49,22 49,49 0,27 -22,49 -49,49z"/>
   <path class="fil0" d="M1267 1197c3,11 6,22 7,34 1,9 1,19 0,28 5,-3 10,-7 15,-11 49,-35 149,-92 205,-121 17,-9 35,-18 54,-25 -25,-17 -51,-18 -78,-7 -54,22 -153,72 -203,100 0,1 0,2 -1,2z"/>
   <path class="fil0" d="M1342 1056c-33,14 -107,39 -140,57 14,9 27,20 38,33 2,-1 4,-3 7,-5l24 -14c35,-20 110,-48 149,-66 -25,-16 -51,-17 -77,-6z"/>
   <path fill="#be2020" d="M513 529c5,7 5,12 0,19 -21,32 -42,64 -62,96 -19,31 -7,67 27,81 36,14 71,27 107,41 8,3 10,7 10,14 2,36 6,72 5,108 0,37 32,69 76,55 35,-11 71,-19 106,-29 7,-2 11,-1 16,5 23,29 47,58 71,87 26,32 64,32 89,0 24,-29 47,-58 70,-88 5,-6 8,-8 16,-6 36,10 73,20 110,30 38,10 69,-13 71,-51 2,-38 4,-75 6,-113 0,-9 4,-12 11,-15 35,-13 69,-26 104,-40 37,-15 49,-51 27,-84 -21,-31 -41,-63 -62,-94 -5,-7 -5,-12 0,-19 20,-31 40,-61 60,-92 23,-36 11,-72 -29,-87 -34,-13 -68,-26 -103,-39 -7,-3 -10,-7 -10,-15 -2,-38 -4,-75 -6,-112 -2,-40 -33,-62 -72,-52 -36,10 -72,19 -108,30 -8,2 -13,0 -18,-6 -23,-29 -47,-58 -70,-86 -25,-32 -64,-32 -89,0 -23,28 -46,57 -68,86 -6,8 -12,9 -21,7 -35,-10 -71,-19 -96,-26 -49,-12 -78,8 -81,49 -3,38 -4,75 -6,113 0,8 -3,11 -10,14 -35,13 -71,27 -106,41 -36,15 -48,50 -26,83 19,32 40,63 60,95z"/>
  </g>
 </g>
</svg>
