<?xml version="1.0" encoding="UTF-8"?>
<!DOCTYPE svg PUBLIC "-//W3C//DTD SVG 1.1//EN" "http://www.w3.org/Graphics/SVG/1.1/DTD/svg11.dtd">
<!-- Creator: CorelDRAW X5 -->
<svg xmlns="http://www.w3.org/2000/svg" xml:space="preserve" width="16.9332mm" height="16.9332mm" style="shape-rendering:geometricPrecision; text-rendering:geometricPrecision; image-rendering:optimizeQuality; fill-rule:evenodd; clip-rule:evenodd"
viewBox="0 0 1693 1693"
 xmlns:xlink="http://www.w3.org/1999/xlink">
 <defs>
  <style type="text/css">
   <![CDATA[
    .fil0 {fill:#2a6299}
   ]]>
  </style>
 </defs>
 <g id="Warstwa_x0020_1">
  <metadata id="CorelCorpID_0Corel-Layer"/>
  <g id="_236562816">
   <path class="fil0" d="M435 167c0,92 -75,167 -167,167 -92,0 -167,-75 -167,-167 0,-92 75,-167 167,-167 92,0 167,75 167,167z"/>
   <path class="fil0" d="M82 921l17 0 0 332c0,46 37,83 83,83l174 0c46,0 83,-37 83,-83l0 -19c-15,-29 -25,-62 -25,-97l0 -434c0,-84 51,-158 124,-189l0 -33c0,-46 -37,-83 -83,-83l-373 0c-46,0 -83,37 -83,83l0 358c0,46 36,83 83,83z"/>
   <path class="fil0" d="M1594 167c0,92 -75,167 -167,167 -92,0 -167,-75 -167,-167 0,-92 75,-167 167,-167 92,0 167,75 167,167z"/>
   <path class="fil0" d="M1156 478l0 33c73,32 124,105 124,189l0 433c0,35 -8,68 -25,97l0 19c0,46 37,83 83,83l174 0c46,0 83,-37 83,-83l0 -332 17 0c46,0 83,-37 83,-83l0 -357c0,-46 -37,-83 -83,-83l-373 0c-46,0 -83,37 -83,83z"/>
   <path fill="#be2020" d="M539 702l0 434c0,46 37,83 83,83l32 0 0 391c0,46 37,83 83,83l223 0c46,0 83,-37 83,-83l0 -393 32 0c46,0 83,-37 83,-83l0 -433c0,-46 -37,-83 -83,-83l-452 0c-47,0 -83,37 -83,83z"/>
   <path fill="#be2020" d="M1039 358c0,106 -86,192 -192,192 -106,0 -192,-86 -192,-192 0,-106 86,-192 192,-192 106,0 192,86 192,192z"/>
  </g>
 </g>
</svg>
