<?xml version="1.0" encoding="UTF-8"?>
<!DOCTYPE svg PUBLIC "-//W3C//DTD SVG 1.1//EN" "http://www.w3.org/Graphics/SVG/1.1/DTD/svg11.dtd">
<!-- Creator: CorelDRAW X5 -->
<svg xmlns="http://www.w3.org/2000/svg" xml:space="preserve" width="16.9332mm" height="16.9332mm" style="shape-rendering:geometricPrecision; text-rendering:geometricPrecision; image-rendering:optimizeQuality; fill-rule:evenodd; clip-rule:evenodd"
viewBox="0 0 1693 1693"
 xmlns:xlink="http://www.w3.org/1999/xlink">
 <defs>
  <style type="text/css">
   <![CDATA[
    .fil1 {fill:#565659}
    .fil2 {fill:#A08946}
    .fil0 {fill:#ACABB1}
    .fil3 {fill:#BA9A3C}
    .fil4 {fill:#CFAE4C}
   ]]>
  </style>
 </defs>
 <g id="Warstwa_x0020_1">
  <metadata id="CorelCorpID_0Corel-Layer"/>
  <path class="fil0" d="M635 1482c0,117 95,212 212,212 117,0 212,-95 212,-212l0 -11 -423 0 0 11z"/>
  <polygon class="fil1" points="847,1337 635,1337 635,1471 1058,1471 1058,1337 "/>
  <path class="fil2" d="M780 904c-103,-29 -178,-124 -178,-236l134 0c0,61 50,111 111,111l0 -780c-321,0 -582,261 -582,582 0,216 117,404 292,505l79 250 145 0 0 -433z"/>
  <path class="fil3" d="M847 0l0 780c61,0 111,-50 111,-111l134 0c0,112 -76,207 -178,236l0 433 145 0 79 -250c174,-101 292,-289 292,-505 0,-321 -261,-582 -582,-582z"/>
  <path class="fil4" d="M735 668l-134 0c0,112 76,207 178,236l0 433 134 0 0 -433c103,-29 178,-124 178,-236l-134 0c0,61 -50,111 -111,111 -61,0 -111,-50 -111,-111z"/>
 </g>
</svg>
