<?xml version="1.0" encoding="UTF-8"?>
<!DOCTYPE svg PUBLIC "-//W3C//DTD SVG 1.1//EN" "http://www.w3.org/Graphics/SVG/1.1/DTD/svg11.dtd">
<!-- Creator: CorelDRAW X5 -->
<svg xmlns="http://www.w3.org/2000/svg" xml:space="preserve" width="16.9332mm" height="16.9332mm" style="shape-rendering:geometricPrecision; text-rendering:geometricPrecision; image-rendering:optimizeQuality; fill-rule:evenodd; clip-rule:evenodd"
viewBox="0 0 1693 1693"
 xmlns:xlink="http://www.w3.org/1999/xlink">
 <defs>
  <style type="text/css">
   <![CDATA[
    .fil1 {fill:#FEFEFE}
    .fil3 {fill:#565659}
    .fil0 {fill:#ACABB1}
    .fil2 {fill:#565659;fill-rule:nonzero}
   ]]>
  </style>
 </defs>
 <g id="Warstwa_x0020_1">
  <metadata id="CorelCorpID_0Corel-Layer"/>
  <path class="fil0" d="M736 669l-133 0c0,112 75,206 178,235l0 432 133 0 0 -432c103,-29 178,-124 178,-235l-133 0c0,61 -50,111 -111,111 -61,0 -111,-50 -111,-111z"/>
  <path class="fil1" d="M780 904c-103,-29 -178,-124 -178,-235l133 0c0,61 50,111 111,111 61,0 111,-50 111,-111l133 0c0,112 -75,206 -178,235l0 432 145 0 79 -250c174,-100 291,-288 291,-503 0,-321 -260,-581 -581,-581 -321,0 -581,260 -581,581 0,215 117,403 291,503l79 250 145 0 0 -432z"/>
  <path class="fil2" d="M776 907c-52,-15 -96,-47 -128,-89 -31,-42 -50,-93 -50,-149l0 -4 4 0 133 0 4 0 0 4c0,30 12,56 31,76l0 0c19,19 46,31 76,31 30,0 56,-12 76,-31l0 0c19,-19 31,-46 31,-76l0 -4 4 0 133 0 4 0 0 4c0,56 -19,108 -50,149 -32,42 -76,73 -128,89l0 425 138 0 78 -247 0 -1 1 -1c88,-51 161,-124 212,-212 49,-85 77,-183 77,-288 0,-159 -65,-304 -169,-408 -104,-104 -249,-169 -408,-169l0 0c-159,0 -304,65 -408,169 -104,104 -169,249 -169,408 0,105 28,204 77,288 51,88 124,161 212,212l1 1 0 1 78 247 138 0 0 -425zm-122 -93c31,41 75,72 127,87l3 1 0 3 0 432 0 4 -4 0 -145 0 -3 0 -1 -3 -78 -248c-88,-51 -162,-125 -213,-214 -50,-86 -78,-186 -78,-292 0,-161 65,-308 171,-413 106,-106 252,-171 413,-171l0 0c161,0 308,65 413,171 106,106 171,252 171,413 0,106 -28,206 -78,292 -51,89 -125,162 -213,214l-78 248 -1 3 -3 0 -145 0 -4 0 0 -4 0 -432 0 -3 3 -1c51,-14 95,-45 127,-87 30,-39 48,-88 49,-141l-126 0c-1,30 -14,57 -34,77l0 0c-21,21 -50,34 -81,34 -32,0 -60,-13 -81,-34l0 0c-20,-20 -33,-47 -34,-77l-126 0c1,53 19,102 49,141z"/>
 </g>
 <g id="Warstwa_x0020_1_0">
  <metadata id="CorelCorpID_1Corel-Layer"/>
  <path class="fil0" d="M635 1480c0,117 95,211 211,211 117,0 211,-95 211,-211l0 -11 -422 0 0 11z"/>
  <polygon class="fil3" points="847,1336 635,1336 635,1469 1058,1469 1058,1336 "/>
 </g>
</svg>
