<?xml version="1.0" encoding="UTF-8"?>
<!DOCTYPE svg PUBLIC "-//W3C//DTD SVG 1.1//EN" "http://www.w3.org/Graphics/SVG/1.1/DTD/svg11.dtd">
<!-- Creator: CorelDRAW X5 -->
<svg xmlns="http://www.w3.org/2000/svg" xml:space="preserve" width="16.9332mm" height="16.9332mm" style="shape-rendering:geometricPrecision; text-rendering:geometricPrecision; image-rendering:optimizeQuality; fill-rule:evenodd; clip-rule:evenodd"
viewBox="0 0 1693 1693"
 xmlns:xlink="http://www.w3.org/1999/xlink">
 <defs>
  <style type="text/css">
   <![CDATA[
    .fil0 {fill:#898989}
   ]]>
  </style>
 </defs>
 <g id="Warstwa_x0020_1">
  <metadata id="CorelCorpID_0Corel-Layer"/>
  <path class="fil0" d="M1627 488l-526 -462c-44,-38 -111,-34 -150,10l-895 1020c-38,44 -34,111 10,150l526 462c44,38 111,34 150,-10l895 -1020c38,-44 34,-111 -10,-150zm-397 -247l168 148c5,5 6,13 1,18 -5,5 -13,6 -18,1l-168 -148c-5,-5 -6,-13 -1,-18 5,-5 13,-6 18,-1zm-866 1156c-22,-19 -24,-53 -5,-75 19,-22 53,-24 75,-5 22,19 24,53 5,75 -19,22 -53,24 -75,5zm382 144l-574 -504 795 -906 574 504 -795 906z"/>
 </g>
</svg>
