<?xml version="1.0" encoding="UTF-8"?>
<!DOCTYPE svg PUBLIC "-//W3C//DTD SVG 1.1//EN" "http://www.w3.org/Graphics/SVG/1.1/DTD/svg11.dtd">
<!-- Creator: CorelDRAW X5 -->
<svg xmlns="http://www.w3.org/2000/svg" xml:space="preserve" width="16.9332mm" height="16.9332mm" style="shape-rendering:geometricPrecision; text-rendering:geometricPrecision; image-rendering:optimizeQuality; fill-rule:evenodd; clip-rule:evenodd"
viewBox="0 0 1693 1693"
 xmlns:xlink="http://www.w3.org/1999/xlink">
 <defs>
  <style type="text/css">
   <![CDATA[
    .fil0 {fill:#898989}
   ]]>
  </style>
 </defs>
 <g id="Warstwa_x0020_1">
  <metadata id="CorelCorpID_0Corel-Layer"/>
  <g id="_237858960">
   <path fill="#a08946" d="M1691 1239c-2,-2 -4,-3 -7,-3l-1676 0c-2,0 -5,1 -6,3 -1,2 -2,4 -2,5l0 0c0,0 0,1 0,1 0,2 26,157 222,157l1250 0c196,0 222,-155 222,-157 0,-2 0,-5 -2,-7zm-719 109l-252 0 0 -58 252 0 0 58z"/>
   <path class="fil0" d="M183 1176l1328 0c19,0 35,-16 35,-35l0 -816c0,-19 -16,-35 -35,-35l-1328 0c-19,0 -35,16 -35,35l0 816c0,19 16,35 35,35zm87 -763l1154 0 0 642 -1154 0 0 -642z"/>
  </g>
  <g id="_237858192">
   <path fill="#a08946" d="M607 658c3,10 7,20 12,29l-15 18c-5,6 -4,15 1,20l25 25c5,5 14,6 20,1l18 -14c9,5 19,10 30,13l3 23c1,8 7,13 15,13l35 0c8,0 14,-6 15,-13l3 -23c11,-3 22,-7 32,-13l18 14c6,5 15,4 20,-1l25 -25c5,-5 6,-14 1,-20l-14 -17c6,-10 10,-20 13,-31l21 -2c8,-1 13,-7 13,-15l0 -35c0,-8 -6,-14 -13,-15l-21 -2c-3,-11 -7,-21 -13,-31l13 -16c5,-6 4,-15 -1,-20l-25 -25c-5,-5 -14,-6 -20,-1l-16 12c-10,-6 -21,-11 -33,-14l-2 -20c-1,-8 -7,-13 -15,-13l-35 0c-8,0 -14,6 -15,13l-2 20c-12,3 -23,8 -33,14l-16 -13c-6,-5 -15,-4 -20,1l-25 25c-5,5 -6,14 -1,20l14 17c-5,10 -10,20 -12,31l-22 2c-8,1 -13,7 -13,15l0 35c0,8 6,14 13,15l23 3zm128 -96c32,0 58,26 58,58 0,32 -26,58 -58,58 -32,0 -58,-26 -58,-58 0,-32 26,-58 58,-58z"/>
   <path fill="#a08946" d="M1084 667l-19 -16c-6,-5 -14,-5 -20,1l-10 10c-9,-4 -18,-7 -27,-9l-3 -14c-1,-7 -8,-12 -16,-12l-24 2c-7,1 -13,7 -14,14l0 14c-9,3 -18,8 -26,14l-12 -8c-6,-4 -15,-3 -19,3l-16 19c-5,6 -5,14 1,20l11 11c-4,8 -6,17 -8,26l-15 3c-7,1 -12,8 -12,16l2 24c1,7 7,13 14,14l17 1c3,8 7,15 12,23l-9 14c-4,6 -3,15 3,19l19 16c6,5 14,5 20,-1l12 -11c8,4 16,7 25,8l3 17c1,7 8,12 16,12l24 -2c7,-1 13,-7 14,-14l1 -16c9,-3 17,-7 25,-13l13 9c6,4 15,3 19,-3l16 -19c5,-6 5,-14 -1,-20l-11 -11c4,-8 7,-17 9,-26l15 -3c7,-1 12,-8 12,-16l-2 -24c-1,-7 -7,-13 -14,-14l-15 0c-3,-9 -7,-17 -12,-24l8 -12c4,-6 3,-15 -3,-20zm-92 141c-26,2 -50,-17 -52,-44 -2,-26 17,-50 44,-52 26,-2 50,17 52,44 2,26 -17,50 -44,52z"/>
   <path class="fil0" d="M692 873c-7,1 -13,7 -13,15l0 15c0,8 5,14 13,15l11 1c2,7 4,13 8,19l-7 9c-5,6 -4,14 1,20l10 11c5,5 14,6 20,1l9 -7c6,4 13,7 20,9l1 11c1,7 7,13 15,13l15 0c8,0 14,-5 15,-13l1 -11c7,-2 15,-5 21,-8l8 7c6,5 14,4 20,-1l11 -10c5,-5 6,-14 1,-20l-6 -8c4,-7 7,-13 9,-21l10 -1c7,-1 13,-7 13,-15l0 -15c0,-8 -5,-14 -13,-15l-10 -1c-2,-7 -5,-14 -8,-21l6 -7c5,-6 4,-14 -1,-20l-10 -11c-5,-5 -14,-6 -20,-1l-7 6c-7,-4 -14,-7 -22,-9l-1 -9c-1,-7 -7,-13 -15,-13l-15 0c-8,0 -14,5 -15,13l-1 9c-8,2 -15,5 -22,9l-7 -6c-6,-5 -14,-4 -20,1l-11 11c-5,5 -6,14 -1,20l6 8c-4,7 -7,13 -8,21l-10 1zm97 -17c22,0 39,18 38,39 0,21 -18,39 -39,38 -21,0 -39,-18 -38,-39 0,-22 18,-39 39,-38z"/>
  </g>
 </g>
</svg>
