<?xml version="1.0" encoding="UTF-8"?>
<!DOCTYPE svg PUBLIC "-//W3C//DTD SVG 1.1//EN" "http://www.w3.org/Graphics/SVG/1.1/DTD/svg11.dtd">
<!-- Creator: CorelDRAW X5 -->
<svg xmlns="http://www.w3.org/2000/svg" xml:space="preserve" width="16.9332mm" height="16.9332mm" style="shape-rendering:geometricPrecision; text-rendering:geometricPrecision; image-rendering:optimizeQuality; fill-rule:evenodd; clip-rule:evenodd"
viewBox="0 0 1693 1693"
 xmlns:xlink="http://www.w3.org/1999/xlink">
 <defs>
  <style type="text/css">
   <![CDATA[
    .fil0 {fill:#2a6299}
   ]]>
  </style>
 </defs>
 <g id="Warstwa_x0020_1">
  <metadata id="CorelCorpID_0Corel-Layer"/>
  <g id="_236563488">
   <path class="fil0" d="M1576 4l-1166 0c-65,0 -118,53 -118,118l0 128 1286 0 0 1038c0,1 -1,2 -2,2l-198 0 0 116 198 0c65,0 118,-53 118,-118l0 -1166c0,-65 -53,-118 -118,-118zm-438 187c-36,0 -64,-29 -64,-64 0,-16 6,-29 15,-40 12,-14 29,-24 49,-24 20,0 37,10 49,24 9,11 15,25 15,40 0,36 -29,64 -64,64zm173 0c-36,0 -64,-29 -64,-64 0,-16 6,-29 15,-40 12,-14 29,-24 49,-24 20,0 37,10 49,24 9,11 15,25 15,40 0,36 -29,64 -64,64zm173 0c-36,0 -64,-29 -64,-64 0,-16 6,-29 15,-40 12,-14 29,-24 49,-24 20,0 37,10 49,24 9,11 15,25 15,40 0,36 -29,64 -64,64z"/>
   <path class="fil0" d="M690 1607l0 -137 -575 0 0 -945c0,-25 20,-45 45,-45l671 0c25,0 45,20 45,45l0 211 115 0 0 -211c0,-89 -72,-161 -161,-161l-671 0c-89,0 -161,72 -161,161l0 1003c0,89 72,161 161,161l553 0c-12,-19 -24,-45 -24,-82zm-194 39c-20,0 -37,-9 -48,-23 -10,-11 -16,-25 -16,-41 0,-36 29,-64 64,-64 35,0 64,29 64,64 0,16 -6,30 -16,41 -12,14 -29,23 -48,23z"/>
   <path fill="#be2020" d="M1223 808l-378 0c-45,0 -82,37 -82,82l0 717c0,45 37,82 82,82l378 0c45,0 82,-37 82,-82l0 -717c0,-45 -37,-82 -82,-82zm-374 87l370 0 0 635 -370 0 0 -635zm144 711c0,-23 18,-41 41,-41 23,0 41,18 41,41 0,23 -18,41 -41,41 -23,0 -41,-18 -41,-41z"/>
  </g>
 </g>
</svg>
