<?xml version="1.0" encoding="UTF-8"?>
<!DOCTYPE svg PUBLIC "-//W3C//DTD SVG 1.1//EN" "http://www.w3.org/Graphics/SVG/1.1/DTD/svg11.dtd">
<!-- Creator: CorelDRAW X5 -->
<svg xmlns="http://www.w3.org/2000/svg" xml:space="preserve" width="16.9332mm" height="16.9332mm" style="shape-rendering:geometricPrecision; text-rendering:geometricPrecision; image-rendering:optimizeQuality; fill-rule:evenodd; clip-rule:evenodd"
viewBox="0 0 1693 1693"
 xmlns:xlink="http://www.w3.org/1999/xlink">
 <defs>
  <style type="text/css">
   <![CDATA[
    .fil0 {fill:#2a6299}
   ]]>
  </style>
 </defs>
 <g id="Warstwa_x0020_1">
  <metadata id="CorelCorpID_0Corel-Layer"/>
  <path class="fil0" d="M1250 1532l-806 0c-45,0 -81,36 -81,81 0,45 36,80 81,80l806 0c45,0 81,-36 81,-80 0,-45 -36,-81 -81,-81zm242 -1532l-1290 0c-89,0 -161,72 -161,161l0 1129c0,89 72,161 161,161l1290 0c89,0 161,-72 161,-161l0 -1129c0,-89 -72,-161 -161,-161zm-81 1371c-45,0 -80,-36 -80,-81 0,-44 36,-81 80,-81 45,0 81,36 81,81 0,45 -36,81 -81,81zm81 -242l-1290 0 0 -968 1290 0 0 968z"/>
  <g id="_237840936">
   <path fill="#be2020" d="M1009 471l70 0 -104 -178c-8,-14 -27,-19 -41,-11 -14,8 -19,27 -11,41l86 148z"/>
   <path fill="#be2020" d="M771 323c8,-14 4,-33 -11,-41 -14,-8 -33,-4 -41,11l-104 178 70 0 86 -148z"/>
   <path fill="#be2020" d="M1195 525l-696 0c-28,0 -51,23 -51,51l0 57c0,28 23,51 51,51l16 0 50 269c6,32 35,57 65,57l425 0c30,0 59,-25 65,-57l50 -269 26 0c28,0 51,-23 51,-51l0 -57c0,-28 -23,-51 -52,-51zm-464 268l0 116c0,17 -13,29 -29,29 -17,0 -29,-13 -29,-29l0 -162c0,-17 13,-29 29,-29 17,0 29,13 29,29l0 47zm93 0l0 116c0,17 -13,29 -29,29 -17,0 -29,-13 -29,-29l0 -162c0,-17 13,-29 29,-29 16,0 29,13 29,29l0 47zm94 67l0 49c0,16 -12,29 -29,29 -16,0 -29,-12 -29,-29l0 -162c0,-16 13,-29 29,-29 16,0 29,12 29,29l0 114zm93 0l0 49c0,16 -12,29 -29,29 -16,0 -29,-12 -29,-29l0 -162c0,-16 12,-29 29,-29 16,0 29,12 29,29l0 114z"/>
  </g>
 </g>
</svg>
